<?xml version="1.0" encoding="UTF-8" standalone="no"?>
<svg
   xmlns:dc="http://purl.org/dc/elements/1.1/"
   xmlns:cc="http://creativecommons.org/ns#"
   xmlns:rdf="http://www.w3.org/1999/02/22-rdf-syntax-ns#"
   xmlns:svg="http://www.w3.org/2000/svg"
   xmlns="http://www.w3.org/2000/svg"
   xmlns:sodipodi="http://sodipodi.sourceforge.net/DTD/sodipodi-0.dtd"
   xmlns:inkscape="http://www.inkscape.org/namespaces/inkscape"
   width="49px"
   height="70px"
   viewBox="0 0 49 70"
   version="1.1"
   id="svg20"
   sodipodi:docname="marker_hr.svg"
   inkscape:version="1.0.2-2 (e86c870879, 2021-01-15)">
  <defs
     id="defs24" />
  <sodipodi:namedview
     id="namedview22"
     pagecolor="#ffffff"
     bordercolor="#666666"
     borderopacity="1.0"
     inkscape:pageshadow="2"
     inkscape:pageopacity="0.0"
     inkscape:pagecheckerboard="0"
     showgrid="false"
     inkscape:zoom="8.4852814"
     inkscape:cx="19.122749"
     inkscape:cy="26.657775"
     inkscape:window-width="1366"
     inkscape:window-height="697"
     inkscape:window-x="-8"
     inkscape:window-y="-8"
     inkscape:window-maximized="1"
     inkscape:current-layer="Desktop-HD-Copy-2"
     inkscape:document-rotation="0" />
  <title
     id="title2">Croatia Marker</title>
  <g
     id="Page-1"
     stroke="none"
     stroke-width="1"
     fill="none"
     fill-rule="evenodd">
    <g
       id="Desktop-HD-Copy-2"
       transform="translate(-520,-88)">
      <g
         id="Group-6"
         transform="translate(520,88)">
        <g
           id="Group-Copy-3"
           fill="#e21414"
           fill-rule="nonzero">
          <g
             id="placeholder-(3)">
            <path
               d="M 24.5,0 C 10.990799,0 0,10.915283 0,24.331665 0,41.194641 24.524091,70 24.524091,70 24.524091,70 49,40.365356 49,24.331665 49,10.915283 38.009631,0 24.5,0 Z"
               id="Shape" />
          </g>
        </g>
        <g
           id="slide"
           transform="translate(15.733232,8.5585446)"
           fill="#ffffff"
           fill-rule="nonzero" />
      </g>
      <g
         id="g2101"
         transform="matrix(0.08486542,0,0,0.08486542,522.77445,90.752075)"
         style="stroke:none;stroke-width:24.189;stroke-miterlimit:4;stroke-dasharray:none;stroke-opacity:1">
         <svg xmlns="http://www.w3.org/2000/svg" width="512" height="512" viewBox="0 0 512 512" style="border-radius:50%"><path fill="#eee" d="m0 167 253.8-19.3L512 167v178l-254.9 32.3L0 345z"/><path fill="#d80027" d="M0 0h512v167H0z"/><path fill="#0052b4" d="M0 345h512v167H0z"/><path fill="#338af3" d="M322.8 178h-44.5l7.4-55.7 29.7-22.2 29.6 22.2V167zm-133.6 0h44.5l-7.4-55.7-29.7-22.2-29.6 22.2V167z"/><path fill="#0052b4" d="M285.7 178h-59.4v-55.7l29.7-22.2 29.7 22.2z"/><path fill="#eee" d="M167 167v122.3a89 89 0 0 0 35.8 71.3l15.5-3.9 19.7 19.8a89.1 89.1 0 0 0 18 1.8 89 89 0 0 0 17.9-1.8l22.4-18.7 13 2.8a89 89 0 0 0 35.7-71.3V167z"/><path fill="#d80027" d="M167 167h35.6v35.5H167zm71.2 0h35.6v35.5h-35.6zm71.2 0H345v35.5h-35.6zm-106.8 35.5h35.6v35.6h-35.6zm71.2 0h35.6v35.6h-35.6zM167 238.1h35.6v35.6H167zm35.6 35.6h35.6v35.6h-35.6zm35.6-35.6h35.6v35.6h-35.6zm71.2 0H345v35.6h-35.6zm-35.6 35.6h35.6v35.6h-35.6zm-35.6 35.6h35.6V345h-35.6zm-35.6 0h-33.3c3 13.3 9 25.4 17.3 35.6h16zM309.4 345h16a88.8 88.8 0 0 0 17.3-35.6h-33.3zm-106.8 0v15.6a88.7 88.7 0 0 0 35.6 16V345zm71.2 0v31.6a88.7 88.7 0 0 0 35.6-16V345z"/></svg>
      </g>
      <circle
         style="fill:none;fill-rule:evenodd;stroke:#000000;stroke-width:0.5;stroke-linejoin:round;stroke-miterlimit:4;stroke-dasharray:none;stroke-opacity:1;paint-order:markers fill stroke"
         id="path922"
         cx="544.5"
         cy="112.26869"
         r="21.725552" />
    </g>
  </g>
  <metadata
     id="metadata2364">
    <rdf:RDF>
      <cc:Work
         rdf:about="">
        <dc:title>Croatia Marker</dc:title>
        <dc:format>image/svg+xml</dc:format>
        <dc:type
           rdf:resource="http://purl.org/dc/dcmitype/StillImage" />
      </cc:Work>
    </rdf:RDF>
  </metadata>
</svg>