<?xml version="1.0" encoding="UTF-8" standalone="no"?>
<svg
   xmlns:dc="http://purl.org/dc/elements/1.1/"
   xmlns:cc="http://creativecommons.org/ns#"
   xmlns:rdf="http://www.w3.org/1999/02/22-rdf-syntax-ns#"
   xmlns:svg="http://www.w3.org/2000/svg"
   xmlns="http://www.w3.org/2000/svg"
   xmlns:sodipodi="http://sodipodi.sourceforge.net/DTD/sodipodi-0.dtd"
   xmlns:inkscape="http://www.inkscape.org/namespaces/inkscape"
   width="49px"
   height="70px"
   viewBox="0 0 49 70"
   version="1.1"
   id="svg20"
   sodipodi:docname="marker_is.svg"
   inkscape:version="1.0.2-2 (e86c870879, 2021-01-15)">
  <defs
     id="defs24" />
  <sodipodi:namedview
     id="namedview22"
     pagecolor="#ffffff"
     bordercolor="#666666"
     borderopacity="1.0"
     inkscape:pageshadow="2"
     inkscape:pageopacity="0.0"
     inkscape:pagecheckerboard="0"
     showgrid="false"
     inkscape:zoom="8.4852814"
     inkscape:cx="19.122749"
     inkscape:cy="26.657775"
     inkscape:window-width="1366"
     inkscape:window-height="697"
     inkscape:window-x="-8"
     inkscape:window-y="-8"
     inkscape:window-maximized="1"
     inkscape:current-layer="Desktop-HD-Copy-2"
     inkscape:document-rotation="0" />
  <title
     id="title2">Iceland Marker</title>
  <g
     id="Page-1"
     stroke="none"
     stroke-width="1"
     fill="none"
     fill-rule="evenodd">
    <g
       id="Desktop-HD-Copy-2"
       transform="translate(-520,-88)">
      <g
         id="Group-6"
         transform="translate(520,88)">
        <g
           id="Group-Copy-3"
           fill="#e21414"
           fill-rule="nonzero">
          <g
             id="placeholder-(3)">
            <path
               d="M 24.5,0 C 10.990799,0 0,10.915283 0,24.331665 0,41.194641 24.524091,70 24.524091,70 24.524091,70 49,40.365356 49,24.331665 49,10.915283 38.009631,0 24.5,0 Z"
               id="Shape" />
          </g>
        </g>
        <g
           id="slide"
           transform="translate(15.733232,8.5585446)"
           fill="#ffffff"
           fill-rule="nonzero" />
      </g>
      <g
         id="g2101"
         transform="matrix(0.08486542,0,0,0.08486542,522.77445,90.752075)"
         style="stroke:none;stroke-width:24.189;stroke-miterlimit:4;stroke-dasharray:none;stroke-opacity:1">
         <svg xmlns="http://www.w3.org/2000/svg" width="512" height="512" viewBox="0 0 512 512"><mask id="a"><circle cx="256" cy="256" r="256" fill="#fff"/></mask><g mask="url(#a)"><path fill="#0052b4" d="M0 0h100.2l66.1 53.5L233.7 0H512v189.3L466.3 257l45.7 65.8V512H233.7l-68-50.7-65.5 50.7H0V322.8l51.4-68.5-51.4-65z"/><path fill="#eee" d="M100.2 0v189.3H0v33.4l24.6 33L0 289.5v33.4h100.2V512h33.4l30.6-26.3 36.1 26.3h33.4V322.8H512v-33.4l-24.6-33.7 24.6-33v-33.4H233.7V0h-33.4l-33.8 25.3L133.6 0z"/><path fill="#d80027" d="M133.6 0v222.7H0v66.7h133.6V512h66.7V289.4H512v-66.7H200.3V0z"/></g></svg>
      </g>
      <circle
         style="fill:none;fill-rule:evenodd;stroke:#000000;stroke-width:0.5;stroke-linejoin:round;stroke-miterlimit:4;stroke-dasharray:none;stroke-opacity:1;paint-order:markers fill stroke"
         id="path922"
         cx="544.5"
         cy="112.26869"
         r="21.725552" />
    </g>
  </g>
  <metadata
     id="metadata2364">
    <rdf:RDF>
      <cc:Work
         rdf:about="">
        <dc:title>Iceland Marker</dc:title>
        <dc:format>image/svg+xml</dc:format>
        <dc:type
           rdf:resource="http://purl.org/dc/dcmitype/StillImage" />
      </cc:Work>
    </rdf:RDF>
  </metadata>
</svg>