<?xml version="1.0" encoding="UTF-8" standalone="no"?>
<svg
   xmlns:dc="http://purl.org/dc/elements/1.1/"
   xmlns:cc="http://creativecommons.org/ns#"
   xmlns:rdf="http://www.w3.org/1999/02/22-rdf-syntax-ns#"
   xmlns:svg="http://www.w3.org/2000/svg"
   xmlns="http://www.w3.org/2000/svg"
   xmlns:sodipodi="http://sodipodi.sourceforge.net/DTD/sodipodi-0.dtd"
   xmlns:inkscape="http://www.inkscape.org/namespaces/inkscape"
   width="49px"
   height="70px"
   viewBox="0 0 49 70"
   version="1.1"
   id="svg20"
   sodipodi:docname="marker_it_88.svg"
   inkscape:version="1.0.2-2 (e86c870879, 2021-01-15)">
  <defs
     id="defs24" />
  <sodipodi:namedview
     id="namedview22"
     pagecolor="#ffffff"
     bordercolor="#666666"
     borderopacity="1.0"
     inkscape:pageshadow="2"
     inkscape:pageopacity="0.0"
     inkscape:pagecheckerboard="0"
     showgrid="false"
     inkscape:zoom="8.4852814"
     inkscape:cx="19.122749"
     inkscape:cy="26.657775"
     inkscape:window-width="1366"
     inkscape:window-height="697"
     inkscape:window-x="-8"
     inkscape:window-y="-8"
     inkscape:window-maximized="1"
     inkscape:current-layer="Desktop-HD-Copy-2"
     inkscape:document-rotation="0" />
  <title
     id="title2">Sardinia Marker</title>
  <g
     id="Page-1"
     stroke="none"
     stroke-width="1"
     fill="none"
     fill-rule="evenodd">
    <g
       id="Desktop-HD-Copy-2"
       transform="translate(-520,-88)">
      <g
         id="Group-6"
         transform="translate(520,88)">
        <g
           id="Group-Copy-3"
           fill="#e21414"
           fill-rule="nonzero">
          <g
             id="placeholder-(3)">
            <path
               d="M 24.5,0 C 10.990799,0 0,10.915283 0,24.331665 0,41.194641 24.524091,70 24.524091,70 24.524091,70 49,40.365356 49,24.331665 49,10.915283 38.009631,0 24.5,0 Z"
               id="Shape" />
          </g>
        </g>
        <g
           id="slide"
           transform="translate(15.733232,8.5585446)"
           fill="#ffffff"
           fill-rule="nonzero" />
      </g>
      <g
         id="g2101"
         transform="matrix(0.08486542,0,0,0.08486542,522.77445,90.752075)"
         style="stroke:none;stroke-width:24.189;stroke-miterlimit:4;stroke-dasharray:none;stroke-opacity:1">
         <svg xmlns="http://www.w3.org/2000/svg" width="512" height="512" viewBox="0 0 512 512" style="border-radius:50%"><path fill="#eee" d="M0 0h222.6l31 23.4L289.4 0H512v222.6l-21.5 31 21.5 35.8V512H289.4l-34.2-20.5-32.6 20.5H0V289.4l22.7-32.6L0 222.6z"/><path fill="#d80027" d="M222.6 0v222.6H0v66.8h222.6V512h66.8V289.4H512v-66.8H289.4V0z"/><path fill="#333" d="M378.4 89a44.5 44.5 0 0 0-43 33.4l43 11.2 43.2-11.2A44.5 44.5 0 0 0 378.4 89zM334 189.2l55.7 11.1v-23.6c15.6-4 28-16.4 32-32l-43.2-11.1h-55.6L334 167z"/><path fill="#acabb1" d="M421.6 122.4h-98.8V167h11.1v-22.3h87.7a44.6 44.6 0 0 0 1.4-11.1c0-3.9-.5-7.6-1.4-11.2z"/><path fill="#333" d="M144.7 89a44.5 44.5 0 0 0-43.1 33.4l43.1 11.2 43.1-11.2A44.5 44.5 0 0 0 144.7 89zm-44.5 100.2 55.6 11.1v-23.6c15.7-4 28-16.4 32-32l-43.1-11.1H89l11.2 33.4z"/><path fill="#acabb1" d="M187.8 122.4H89V167h11.2v-22.3h87.6a44.6 44.6 0 0 0 1.4-11.1c0-3.9-.5-7.6-1.4-11.2z"/><path fill="#333" d="M378.4 311.7a44.5 44.5 0 0 0-43 33.3l43 11.2 43.2-11.2a44.5 44.5 0 0 0-43.2-33.3zM334 411.8l55.7 11.2v-23.7c15.6-4 28-16.4 32-32l-43.2-11.1h-55.6l11.1 33.4z"/><path fill="#acabb1" d="M421.6 345h-98.8v44.6h11.1v-22.3h87.7a44.6 44.6 0 0 0 1.4-11.1c0-3.9-.5-7.6-1.4-11.2z"/><path fill="#333" d="M144.7 311.7a44.5 44.5 0 0 0-43.1 33.3l43.1 11.2 43.1-11.2a44.5 44.5 0 0 0-43.1-33.3zm-44.5 100.1 55.6 11.2v-23.7c15.7-4 28-16.4 32-32l-43.1-11.1H89l11.2 33.4z"/><path fill="#acabb1" d="M187.8 345H89v44.6h11.2v-22.3h87.6a44.6 44.6 0 0 0 1.4-11.1c0-3.9-.5-7.6-1.4-11.2z"/></svg>
      </g>
      <circle
         style="fill:none;fill-rule:evenodd;stroke:#000000;stroke-width:0.5;stroke-linejoin:round;stroke-miterlimit:4;stroke-dasharray:none;stroke-opacity:1;paint-order:markers fill stroke"
         id="path922"
         cx="544.5"
         cy="112.26869"
         r="21.725552" />
    </g>
  </g>
  <metadata
     id="metadata2364">
    <rdf:RDF>
      <cc:Work
         rdf:about="">
        <dc:title>Sardinia Marker</dc:title>
        <dc:format>image/svg+xml</dc:format>
        <dc:type
           rdf:resource="http://purl.org/dc/dcmitype/StillImage" />
      </cc:Work>
    </rdf:RDF>
  </metadata>
</svg>