<?xml version="1.0" encoding="UTF-8" standalone="no"?>
<svg
   xmlns:dc="http://purl.org/dc/elements/1.1/"
   xmlns:cc="http://creativecommons.org/ns#"
   xmlns:rdf="http://www.w3.org/1999/02/22-rdf-syntax-ns#"
   xmlns:svg="http://www.w3.org/2000/svg"
   xmlns="http://www.w3.org/2000/svg"
   xmlns:sodipodi="http://sodipodi.sourceforge.net/DTD/sodipodi-0.dtd"
   xmlns:inkscape="http://www.inkscape.org/namespaces/inkscape"
   width="49px"
   height="70px"
   viewBox="0 0 49 70"
   version="1.1"
   id="svg20"
   sodipodi:docname="marker_es.svg"
   inkscape:version="1.0.2-2 (e86c870879, 2021-01-15)">
  <defs
     id="defs24" />
  <sodipodi:namedview
     id="namedview22"
     pagecolor="#ffffff"
     bordercolor="#666666"
     borderopacity="1.0"
     inkscape:pageshadow="2"
     inkscape:pageopacity="0.0"
     inkscape:pagecheckerboard="0"
     showgrid="false"
     inkscape:zoom="8.4852814"
     inkscape:cx="19.122749"
     inkscape:cy="26.657775"
     inkscape:window-width="1366"
     inkscape:window-height="697"
     inkscape:window-x="-8"
     inkscape:window-y="-8"
     inkscape:window-maximized="1"
     inkscape:current-layer="Desktop-HD-Copy-2"
     inkscape:document-rotation="0" />
  <title
     id="title2">Spain Marker</title>
  <g
     id="Page-1"
     stroke="none"
     stroke-width="1"
     fill="none"
     fill-rule="evenodd">
    <g
       id="Desktop-HD-Copy-2"
       transform="translate(-520,-88)">
      <g
         id="Group-6"
         transform="translate(520,88)">
        <g
           id="Group-Copy-3"
           fill="#e21414"
           fill-rule="nonzero">
          <g
             id="placeholder-(3)">
            <path
               d="M 24.5,0 C 10.990799,0 0,10.915283 0,24.331665 0,41.194641 24.524091,70 24.524091,70 24.524091,70 49,40.365356 49,24.331665 49,10.915283 38.009631,0 24.5,0 Z"
               id="Shape" />
          </g>
        </g>
        <g
           id="slide"
           transform="translate(15.733232,8.5585446)"
           fill="#ffffff"
           fill-rule="nonzero" />
      </g>
      <g
         id="g2101"
         transform="matrix(0.08486542,0,0,0.08486542,522.77445,90.752075)"
         style="stroke:none;stroke-width:24.189;stroke-miterlimit:4;stroke-dasharray:none;stroke-opacity:1">
         <svg xmlns="http://www.w3.org/2000/svg" width="512" height="512" viewBox="0 0 512 512"><mask id="a"><circle cx="256" cy="256" r="256" fill="#fff"/></mask><g mask="url(#a)"><path fill="#ffda44" d="m0 128 256-32 256 32v256l-256 32L0 384Z"/><path fill="#d80027" d="M0 0h512v128H0zm0 384h512v128H0z"/><g fill="#eee"><path d="M144 304h-16v-80h16zm128 0h16v-80h-16z"/><ellipse cx="208" cy="296" rx="48" ry="32"/></g><g fill="#d80027"><rect width="16" height="24" x="128" y="192" rx="8"/><rect width="16" height="24" x="272" y="192" rx="8"/><path d="M208 272v24a24 24 0 0 0 24 24 24 24 0 0 0 24-24v-24h-24z"/></g><rect width="32" height="16" x="120" y="208" fill="#ff9811" ry="8"/><rect width="32" height="16" x="264" y="208" fill="#ff9811" ry="8"/><rect width="32" height="16" x="120" y="304" fill="#ff9811" rx="8"/><rect width="32" height="16" x="264" y="304" fill="#ff9811" rx="8"/><path fill="#ff9811" d="M160 272v24c0 8 4 14 9 19l5-6 5 10a21 21 0 0 0 10 0l5-10 5 6c6-5 9-11 9-19v-24h-9l-5 8-5-8h-10l-5 8-5-8z"/><path d="M122 252h172m-172 24h28m116 0h28"/><path fill="#d80027" d="M122 248a4 4 0 0 0-4 4 4 4 0 0 0 4 4h172a4 4 0 0 0 4-4 4 4 0 0 0-4-4zm0 24a4 4 0 0 0-4 4 4 4 0 0 0 4 4h28a4 4 0 0 0 4-4 4 4 0 0 0-4-4zm144 0a4 4 0 0 0-4 4 4 4 0 0 0 4 4h28a4 4 0 0 0 4-4 4 4 0 0 0-4-4z"/><path fill="#eee" d="M196 168c-7 0-13 5-15 11l-5-1c-9 0-16 7-16 16s7 16 16 16c7 0 13-4 15-11a16 16 0 0 0 17-4 16 16 0 0 0 17 4 16 16 0 1 0 10-20 16 16 0 0 0-27-5c-3-4-7-6-12-6zm0 8c5 0 8 4 8 8 0 5-3 8-8 8-4 0-8-3-8-8 0-4 4-8 8-8zm24 0c5 0 8 4 8 8 0 5-3 8-8 8-4 0-8-3-8-8 0-4 4-8 8-8zm-44 10 4 1 4 8c0 4-4 7-8 7s-8-3-8-8c0-4 4-8 8-8zm64 0c5 0 8 4 8 8 0 5-3 8-8 8-4 0-8-3-8-7l4-8z"/><path fill="none" d="M220 284v12c0 7 5 12 12 12s12-5 12-12v-12z"/><path fill="#ff9811" d="M200 160h16v32h-16z"/><path fill="#eee" d="M208 224h48v48h-48z"/><path fill="#d80027" d="m248 208-8 8h-64l-8-8c0-13 18-24 40-24s40 11 40 24zm-88 16h48v48h-48z"/><rect width="20" height="32" x="222" y="232" fill="#d80027" rx="10" ry="10"/><path fill="#ff9811" d="M168 232v8h8v16h-8v8h32v-8h-8v-16h8v-8zm8-16h64v8h-64z"/><g fill="#ffda44"><circle cx="186" cy="202" r="6"/><circle cx="208" cy="202" r="6"/><circle cx="230" cy="202" r="6"/></g><path fill="#d80027" d="M169 272v43a24 24 0 0 0 10 4v-47h-10zm20 0v47a24 24 0 0 0 10-4v-43h-10z"/><g fill="#338af3"><circle cx="208" cy="272" r="16"/><rect width="32" height="16" x="264" y="320" ry="8"/><rect width="32" height="16" x="120" y="320" ry="8"/></g></g></svg>
      </g>
      <circle
         style="fill:none;fill-rule:evenodd;stroke:#000000;stroke-width:0.5;stroke-linejoin:round;stroke-miterlimit:4;stroke-dasharray:none;stroke-opacity:1;paint-order:markers fill stroke"
         id="path922"
         cx="544.5"
         cy="112.26869"
         r="21.725552" />
    </g>
  </g>
  <metadata
     id="metadata2364">
    <rdf:RDF>
      <cc:Work
         rdf:about="">
        <dc:title>Spain Marker</dc:title>
        <dc:format>image/svg+xml</dc:format>
        <dc:type
           rdf:resource="http://purl.org/dc/dcmitype/StillImage" />
      </cc:Work>
    </rdf:RDF>
  </metadata>
</svg>